<svg width="430" height="414" viewBox="0 0 430 414" fill="none" xmlns="http://www.w3.org/2000/svg">
<path opacity="0.05" d="M396.522 -58.5195L521.613 -391.421L415.855 -51.8828L642.261 -326.13L431.985 -39.3281L735.171 -225.201L443.165 -22.2168L790.276 -99.5742L448.183 -2.40137L801.604 37.1387L446.494 17.9688L767.929 170.123L438.284 36.6865L692.897 284.967L424.44 51.7256L584.642 369.226L406.464 61.4541L454.894 413.768L386.303 64.8184L317.712 413.768L366.142 61.4541L187.963 369.226L348.165 51.7256L79.707 284.967L334.321 36.6865L4.67578 170.123L326.11 17.9688L-29 37.1387L324.423 -2.40137L-17.6719 -99.5742L329.44 -22.2168L37.4336 -225.201L340.62 -39.3281L130.344 -326.13L356.75 -51.8828L250.992 -391.421L376.082 -58.5195L386.303 -414L396.522 -58.5195Z" fill="url(#paint0_radial_1_2373)"/>
<defs>
<radialGradient id="paint0_radial_1_2373" cx="0" cy="0" r="1" gradientUnits="userSpaceOnUse" gradientTransform="translate(386.302 -0.11637) rotate(90) scale(413.883 415.302)">
<stop stop-color="white"/>
<stop offset="0.685417" stop-color="#88A0F8"/>
<stop offset="1" stop-color="#8AA2FD" stop-opacity="0"/>
</radialGradient>
</defs>
</svg>
